PathFileType	4	(X/Y/Z)	Demo_SinglePerson_0-99.trc
DataRate	CameraRate	NumFrames	NumMarkers	Units	OrigDataRate	OrigDataStartFrame	OrigNumFrames
60	60	4	22	m	60	0	100
Frame#	Time	Hip			RHip			RKnee			RAnkle			RBigToe			RSmallToe			RHeel			LHip			LKnee			LAnkle			LBigToe			LSmallToe			LHeel			Neck			Head			Nose			RShoulder			RElbow			RWrist			LShoulder			LElbow			LWrist			
		X1	Y1	Z1	X2	Y2	Z2	X3	Y3	Z3	X4	Y4	Z4	X5	Y5	Z5	X6	Y6	Z6	X7	Y7	Z7	X8	Y8	Z8	X9	Y9	Z9	X10	Y10	Z10	X11	Y11	Z11	X12	Y12	Z12	X13	Y13	Z13	X14	Y14	Z14	X15	Y15	Z15	X16	Y16	Z16	X17	Y17	Z17	X18	Y18	Z18	X19	Y19	Z19	X20	Y20	Z20	X21	Y21	Z21	X22	Y22	Z22	
0	0.0	0.017841946616316832	0.9037328523332739	-1.4475319067163497	-0.07616656711837434	0.8996950828332331	-1.4316202378301701	-0.04101401123060153	0.4975228590433249	-1.4466307560563478	0.02960654748786778	0.15213960698042972	-1.5942543057537812	0.03113075032963044	0.08149515590408588	-1.5563329026179182	-0.029325468265266375	0.07722249180403214	-1.4813521407292176	0.056404983164024494	0.1075874178974652	-1.6323472545531226	0.11717525279196477	0.9014113243216783	-1.4242223766100468	0.03395078486666235	0.586218583186179	-1.1454810574518146	0.005023564746802193	0.15821563791372953	-1.1714814885509357	-0.041528282067090236	0.11046240061849343	-0.9929572862848762	0.011424275609557832	0.1115530724123686	-1.0108705874864345	0.0015666258726509306	0.0946928666439771	-1.1959998319062943	-0.04425926781779351	1.4694641581292065	-1.3957865787014068	-0.07169759027488783	1.7006183918378308	-1.2677438838514021	-0.07269876359389131	1.5407687140426647	-1.2249028028903153	-0.2073581913415768	1.3715603009835113	-1.4639124248432007	-0.2932876330529612	1.110451634296777	-1.5299342331457342	-0.36799616121969597	0.9031071113743231	-1.3671894054952152	0.1467107184546356	1.405127421781689	-1.4333887974755493	0.27149637714506253	1.15558804972134	-1.4701183160595992	0.3544971069177801	0.9217439531762182	-1.430824276629608
1	0.016666666666666666	0.01705044175430398	0.8967063820699464	-1.4377461347078484	-0.07426751380416906	0.8846664588860639	-1.4316295897634186	-0.04015877239754218	0.48312169174702035	-1.4474571073169071	0.026976779413784492	0.15415381698774086	-1.5915831554951885	0.0369784717646293	0.07311174477428932	-1.4381742567599365	-0.007325826686804736	0.06578166634883995	-1.539484285601758	0.04690576601608422	0.10692361885150363	-1.630287015955439	0.14290971556402815	0.8676254460459905	-1.4219110806302973	0.06184940630294255	0.508285382893424	-1.2273452431503686	0.006582114596402487	0.15667593523338008	-1.168748648742274	-0.045093059461571	0.10834978797220662	-0.9845340341684564	0.008039323824724316	0.10529355659294096	-1.0034828150222035	0.003292692644515242	0.09567104546094461	-1.192023391166267	-0.04001861311359829	1.4745803827498498	-1.3842971365787693	-0.06477854304232543	1.691767828904914	-1.2639982600490023	-0.05623490910803973	1.544012907450871	-1.2158113453189732	-0.2031172890192391	1.37272026932381	-1.4598075374954542	-0.28897654704030856	1.1130559802530362	-1.5138351958016951	-0.3680693558467514	0.909158896322781	-1.3545266645587548	0.1507719036987313	1.4033816574023903	-1.4283013511187435	0.2727748860672	1.1592508989679438	-1.4624656397778482	0.3551594526645097	0.9266297758761562	-1.4296525201770107
2	0.03333333333333333	0.013120138689689958	0.8984087925543303	-1.4295314716990637	-0.08101702921403922	0.8903908693110998	-1.4206889504882614	-0.04021944039520786	0.479867909988933	-1.4428188760838663	0.028821783649199996	0.15059188611452495	-1.5931306196151036	0.036828273163386896	0.062003494780239914	-1.4540564145282724	-0.009819424294943402	0.06368425348930179	-1.5386293274633804	0.04696362932412189	0.10611713454330708	-1.6327122921834296	0.14032912168834305	0.8735724992083612	-1.4127103731208015	0.030122009739782196	0.5824923815360125	-1.139954921155007	0.0012771886958309743	0.1516186463936931	-1.166465523082101	-0.044821264326005056	0.10087565564815615	-0.9895444435003774	0.010350872792183061	0.09921823460737314	-1.0126556249419854	-0.00233162945707173	0.09150692070376834	-1.1966323127732772	-0.03244018589732862	1.4734578860883225	-1.3761664290193898	-0.054734891172691036	1.690127632661886	-1.2519984209587978	-0.05436228809492693	1.5417288612254214	-1.2025409115670795	-0.19794655017505589	1.3756515404684018	-1.4515153305096344	-0.2914188745079845	1.1165805288503723	-1.506920662060705	-0.36746634241460574	0.9178499040926059	-1.3435053000427177	0.14593933120486133	1.408257632098917	-1.4428910471454264	0.27833279463117194	1.1534618446246443	-1.4463086887562828	0.3591613628268548	0.917281645608404	-1.4145793781232638
3	0.05	0.01018131062316863	0.8968086657523604	-1.4195156113485372	-0.08515595884817162	0.8905179757319791	-1.4121659112492437	-0.04375242396395473	0.48452495304884813	-1.437503954223138	0.027037027777317417	0.15674625167586634	-1.5905342219075878	-0.0006749601473448661	0.061639844833809895	-1.4262201584115866	-0.03378297142812525	0.06131779734339077	-1.5217564434883777	0.04589069764310536	0.11293830163201964	-1.632522723688066	0.13591717023255406	0.8715638754110426	-1.4024887668295525	0.053638828552627624	0.5106027229159482	-1.2060392097495112	0.0019509533109787795	0.14920880168784137	-1.160230053810871	-0.047209736952835896	0.10110275801837589	-0.9834521440970232	0.008894621126426744	0.09822310024708955	-1.0039184360097206	0.0007482344631115523	0.09006760360434186	-1.1948544202335645	-0.025267502800136656	1.4739675466622144	-1.3647831027332955	-0.0426434884128718	1.6920609846454	-1.2502963278267614	-0.04645814469549202	1.5413048011064203	-1.1923483958100412	-0.19150672589316797	1.3790142305056785	-1.4439436411666624	-0.2939766635102368	1.1219084053596744	-1.5001046190524914	-0.3836799665001012	0.9441834426417413	-1.3255606204547814	0.15189583023353592	1.4046018693276017	-1.4344833188970982	0.28118788251347715	1.1491071917063007	-1.435222669283037	0.3597899653158404	0.9128938315366453	-1.406209933302824
